<mxfile host="app.diagrams.net" modified="2023-04-17T12:31:01.803Z" agent="Mozilla/5.0 (Windows NT 10.0; Win64; x64; rv:109.0) Gecko/20100101 Firefox/112.0" etag="EeMcDbWzAs3BqYsu_8_x" version="21.1.8" type="github">
  <diagram name="Page-1" id="8CFkx0u-gaAyG3x4pVRe">
    <mxGraphModel dx="1434" dy="754" grid="1" gridSize="10" guides="1" tooltips="1" connect="1" arrows="1" fold="1" page="1" pageScale="1" pageWidth="1169" pageHeight="827" math="0" shadow="0">
      <root>
        <mxCell id="0" />
        <mxCell id="1" parent="0" />
        <mxCell id="Qr5utOBiKfbGwNmgys-7-1" value="" style="rounded=0;whiteSpace=wrap;html=1;fillColor=#f5f5f5;fontColor=#333333;strokeColor=#666666;" vertex="1" parent="1">
          <mxGeometry x="10" width="1150" height="90" as="geometry" />
        </mxCell>
        <mxCell id="Qr5utOBiKfbGwNmgys-7-2" value="Affichages" style="shape=partialRectangle;whiteSpace=wrap;html=1;bottom=0;top=0;fillColor=none;" vertex="1" parent="1">
          <mxGeometry x="235" y="50" width="120" height="40" as="geometry" />
        </mxCell>
        <mxCell id="Qr5utOBiKfbGwNmgys-7-3" value="Formulaires" style="shape=partialRectangle;whiteSpace=wrap;html=1;bottom=0;top=0;fillColor=none;" vertex="1" parent="1">
          <mxGeometry x="355" y="50" width="120" height="40" as="geometry" />
        </mxCell>
        <mxCell id="Qr5utOBiKfbGwNmgys-7-4" value="Modifications" style="shape=partialRectangle;whiteSpace=wrap;html=1;bottom=0;top=0;fillColor=none;" vertex="1" parent="1">
          <mxGeometry x="475" y="50" width="120" height="40" as="geometry" />
        </mxCell>
        <mxCell id="Qr5utOBiKfbGwNmgys-7-5" value="Accueil" style="shape=partialRectangle;whiteSpace=wrap;html=1;bottom=0;top=0;fillColor=none;" vertex="1" parent="1">
          <mxGeometry x="115" y="50" width="120" height="40" as="geometry" />
        </mxCell>
        <mxCell id="Qr5utOBiKfbGwNmgys-7-6" value="" style="rounded=0;whiteSpace=wrap;html=1;" vertex="1" parent="1">
          <mxGeometry x="305" y="120" width="560" height="120" as="geometry" />
        </mxCell>
        <mxCell id="Qr5utOBiKfbGwNmgys-7-7" value="&lt;font style=&quot;font-size: 27px;&quot;&gt;NOM&amp;nbsp;&amp;nbsp; du rôle&lt;br&gt;&lt;/font&gt;" style="text;html=1;strokeColor=none;fillColor=none;align=center;verticalAlign=middle;whiteSpace=wrap;rounded=0;" vertex="1" parent="1">
          <mxGeometry x="415" y="160" width="340" height="40" as="geometry" />
        </mxCell>
        <mxCell id="Qr5utOBiKfbGwNmgys-7-11" value="" style="shape=table;startSize=0;container=1;collapsible=0;childLayout=tableLayout;fontSize=16;columnLines=0;rowLines=1;" vertex="1" parent="1">
          <mxGeometry x="229" y="270" width="692" height="410" as="geometry" />
        </mxCell>
        <mxCell id="Qr5utOBiKfbGwNmgys-7-12" value="" style="shape=tableRow;horizontal=0;startSize=0;swimlaneHead=0;swimlaneBody=0;strokeColor=inherit;top=0;left=0;bottom=0;right=0;collapsible=0;dropTarget=0;fillColor=none;points=[[0,0.5],[1,0.5]];portConstraint=eastwest;fontSize=16;" vertex="1" parent="Qr5utOBiKfbGwNmgys-7-11">
          <mxGeometry width="692" height="32" as="geometry" />
        </mxCell>
        <mxCell id="Qr5utOBiKfbGwNmgys-7-13" value="Titre&amp;nbsp;" style="shape=partialRectangle;html=1;whiteSpace=wrap;connectable=0;strokeColor=inherit;overflow=hidden;fillColor=none;top=0;left=0;bottom=0;right=0;pointerEvents=1;fontSize=16;strokeWidth=0;" vertex="1" parent="Qr5utOBiKfbGwNmgys-7-12">
          <mxGeometry width="331" height="32" as="geometry">
            <mxRectangle width="331" height="32" as="alternateBounds" />
          </mxGeometry>
        </mxCell>
        <mxCell id="Qr5utOBiKfbGwNmgys-7-14" value="Année" style="shape=partialRectangle;html=1;whiteSpace=wrap;connectable=0;strokeColor=inherit;overflow=hidden;fillColor=none;top=0;left=0;bottom=0;right=0;pointerEvents=1;fontSize=16;" vertex="1" parent="Qr5utOBiKfbGwNmgys-7-12">
          <mxGeometry x="331" width="130" height="32" as="geometry">
            <mxRectangle width="130" height="32" as="alternateBounds" />
          </mxGeometry>
        </mxCell>
        <mxCell id="Qr5utOBiKfbGwNmgys-7-15" value="Acteur" style="shape=partialRectangle;html=1;whiteSpace=wrap;connectable=0;strokeColor=inherit;overflow=hidden;fillColor=none;top=0;left=0;bottom=0;right=0;pointerEvents=1;fontSize=16;" vertex="1" parent="Qr5utOBiKfbGwNmgys-7-12">
          <mxGeometry x="461" width="231" height="32" as="geometry">
            <mxRectangle width="231" height="32" as="alternateBounds" />
          </mxGeometry>
        </mxCell>
        <mxCell id="Qr5utOBiKfbGwNmgys-7-17" value="" style="shape=tableRow;horizontal=0;startSize=0;swimlaneHead=0;swimlaneBody=0;strokeColor=inherit;top=0;left=0;bottom=0;right=0;collapsible=0;dropTarget=0;fillColor=none;points=[[0,0.5],[1,0.5]];portConstraint=eastwest;fontSize=16;" vertex="1" parent="Qr5utOBiKfbGwNmgys-7-11">
          <mxGeometry y="32" width="692" height="34" as="geometry" />
        </mxCell>
        <mxCell id="Qr5utOBiKfbGwNmgys-7-18" value="" style="shape=partialRectangle;html=1;whiteSpace=wrap;connectable=0;overflow=hidden;top=0;left=0;bottom=0;right=0;pointerEvents=1;fontSize=16;strokeWidth=0;fillColor=none;strokeColor=inherit;" vertex="1" parent="Qr5utOBiKfbGwNmgys-7-17">
          <mxGeometry width="331" height="34" as="geometry">
            <mxRectangle width="331" height="34" as="alternateBounds" />
          </mxGeometry>
        </mxCell>
        <mxCell id="Qr5utOBiKfbGwNmgys-7-19" value="" style="shape=partialRectangle;html=1;whiteSpace=wrap;connectable=0;strokeColor=inherit;overflow=hidden;fillColor=none;top=0;left=0;bottom=0;right=0;pointerEvents=1;fontSize=16;" vertex="1" parent="Qr5utOBiKfbGwNmgys-7-17">
          <mxGeometry x="331" width="130" height="34" as="geometry">
            <mxRectangle width="130" height="34" as="alternateBounds" />
          </mxGeometry>
        </mxCell>
        <mxCell id="Qr5utOBiKfbGwNmgys-7-20" value="" style="shape=partialRectangle;html=1;whiteSpace=wrap;connectable=0;strokeColor=inherit;overflow=hidden;fillColor=none;top=0;left=0;bottom=0;right=0;pointerEvents=1;fontSize=16;" vertex="1" parent="Qr5utOBiKfbGwNmgys-7-17">
          <mxGeometry x="461" width="231" height="34" as="geometry">
            <mxRectangle width="231" height="34" as="alternateBounds" />
          </mxGeometry>
        </mxCell>
        <mxCell id="Qr5utOBiKfbGwNmgys-7-22" value="" style="shape=tableRow;horizontal=0;startSize=0;swimlaneHead=0;swimlaneBody=0;strokeColor=inherit;top=0;left=0;bottom=0;right=0;collapsible=0;dropTarget=0;fillColor=none;points=[[0,0.5],[1,0.5]];portConstraint=eastwest;fontSize=16;" vertex="1" parent="Qr5utOBiKfbGwNmgys-7-11">
          <mxGeometry y="66" width="692" height="39" as="geometry" />
        </mxCell>
        <mxCell id="Qr5utOBiKfbGwNmgys-7-23" value="" style="shape=partialRectangle;html=1;whiteSpace=wrap;connectable=0;overflow=hidden;top=0;left=0;bottom=0;right=0;pointerEvents=1;fontSize=16;strokeWidth=0;fillColor=#f5f5f5;strokeColor=#666666;fontColor=#333333;" vertex="1" parent="Qr5utOBiKfbGwNmgys-7-22">
          <mxGeometry width="331" height="39" as="geometry">
            <mxRectangle width="331" height="39" as="alternateBounds" />
          </mxGeometry>
        </mxCell>
        <mxCell id="Qr5utOBiKfbGwNmgys-7-24" value="" style="shape=partialRectangle;html=1;whiteSpace=wrap;connectable=0;strokeColor=#666666;overflow=hidden;fillColor=#f5f5f5;top=0;left=0;bottom=0;right=0;pointerEvents=1;fontSize=16;fontColor=#333333;" vertex="1" parent="Qr5utOBiKfbGwNmgys-7-22">
          <mxGeometry x="331" width="130" height="39" as="geometry">
            <mxRectangle width="130" height="39" as="alternateBounds" />
          </mxGeometry>
        </mxCell>
        <mxCell id="Qr5utOBiKfbGwNmgys-7-25" value="" style="shape=partialRectangle;html=1;whiteSpace=wrap;connectable=0;strokeColor=#666666;overflow=hidden;fillColor=#f5f5f5;top=0;left=0;bottom=0;right=0;pointerEvents=1;fontSize=16;fontColor=#333333;" vertex="1" parent="Qr5utOBiKfbGwNmgys-7-22">
          <mxGeometry x="461" width="231" height="39" as="geometry">
            <mxRectangle width="231" height="39" as="alternateBounds" />
          </mxGeometry>
        </mxCell>
        <mxCell id="Qr5utOBiKfbGwNmgys-7-27" style="shape=tableRow;horizontal=0;startSize=0;swimlaneHead=0;swimlaneBody=0;strokeColor=inherit;top=0;left=0;bottom=0;right=0;collapsible=0;dropTarget=0;fillColor=none;points=[[0,0.5],[1,0.5]];portConstraint=eastwest;fontSize=16;" vertex="1" parent="Qr5utOBiKfbGwNmgys-7-11">
          <mxGeometry y="105" width="692" height="38" as="geometry" />
        </mxCell>
        <mxCell id="Qr5utOBiKfbGwNmgys-7-28" style="shape=partialRectangle;html=1;whiteSpace=wrap;connectable=0;overflow=hidden;top=0;left=0;bottom=0;right=0;pointerEvents=1;fontSize=16;strokeWidth=0;fillColor=none;strokeColor=inherit;" vertex="1" parent="Qr5utOBiKfbGwNmgys-7-27">
          <mxGeometry width="331" height="38" as="geometry">
            <mxRectangle width="331" height="38" as="alternateBounds" />
          </mxGeometry>
        </mxCell>
        <mxCell id="Qr5utOBiKfbGwNmgys-7-29" style="shape=partialRectangle;html=1;whiteSpace=wrap;connectable=0;strokeColor=inherit;overflow=hidden;fillColor=none;top=0;left=0;bottom=0;right=0;pointerEvents=1;fontSize=16;" vertex="1" parent="Qr5utOBiKfbGwNmgys-7-27">
          <mxGeometry x="331" width="130" height="38" as="geometry">
            <mxRectangle width="130" height="38" as="alternateBounds" />
          </mxGeometry>
        </mxCell>
        <mxCell id="Qr5utOBiKfbGwNmgys-7-30" style="shape=partialRectangle;html=1;whiteSpace=wrap;connectable=0;strokeColor=inherit;overflow=hidden;fillColor=none;top=0;left=0;bottom=0;right=0;pointerEvents=1;fontSize=16;" vertex="1" parent="Qr5utOBiKfbGwNmgys-7-27">
          <mxGeometry x="461" width="231" height="38" as="geometry">
            <mxRectangle width="231" height="38" as="alternateBounds" />
          </mxGeometry>
        </mxCell>
        <mxCell id="Qr5utOBiKfbGwNmgys-7-32" style="shape=tableRow;horizontal=0;startSize=0;swimlaneHead=0;swimlaneBody=0;strokeColor=inherit;top=0;left=0;bottom=0;right=0;collapsible=0;dropTarget=0;fillColor=none;points=[[0,0.5],[1,0.5]];portConstraint=eastwest;fontSize=16;" vertex="1" parent="Qr5utOBiKfbGwNmgys-7-11">
          <mxGeometry y="143" width="692" height="37" as="geometry" />
        </mxCell>
        <mxCell id="Qr5utOBiKfbGwNmgys-7-33" style="shape=partialRectangle;html=1;whiteSpace=wrap;connectable=0;overflow=hidden;top=0;left=0;bottom=0;right=0;pointerEvents=1;fontSize=16;strokeWidth=0;fillColor=#f5f5f5;strokeColor=#666666;fontColor=#333333;" vertex="1" parent="Qr5utOBiKfbGwNmgys-7-32">
          <mxGeometry width="331" height="37" as="geometry">
            <mxRectangle width="331" height="37" as="alternateBounds" />
          </mxGeometry>
        </mxCell>
        <mxCell id="Qr5utOBiKfbGwNmgys-7-34" style="shape=partialRectangle;html=1;whiteSpace=wrap;connectable=0;strokeColor=#666666;overflow=hidden;fillColor=#f5f5f5;top=0;left=0;bottom=0;right=0;pointerEvents=1;fontSize=16;fontColor=#333333;" vertex="1" parent="Qr5utOBiKfbGwNmgys-7-32">
          <mxGeometry x="331" width="130" height="37" as="geometry">
            <mxRectangle width="130" height="37" as="alternateBounds" />
          </mxGeometry>
        </mxCell>
        <mxCell id="Qr5utOBiKfbGwNmgys-7-35" style="shape=partialRectangle;html=1;whiteSpace=wrap;connectable=0;strokeColor=#666666;overflow=hidden;fillColor=#f5f5f5;top=0;left=0;bottom=0;right=0;pointerEvents=1;fontSize=16;fontColor=#333333;" vertex="1" parent="Qr5utOBiKfbGwNmgys-7-32">
          <mxGeometry x="461" width="231" height="37" as="geometry">
            <mxRectangle width="231" height="37" as="alternateBounds" />
          </mxGeometry>
        </mxCell>
        <mxCell id="Qr5utOBiKfbGwNmgys-7-37" style="shape=tableRow;horizontal=0;startSize=0;swimlaneHead=0;swimlaneBody=0;strokeColor=inherit;top=0;left=0;bottom=0;right=0;collapsible=0;dropTarget=0;fillColor=none;points=[[0,0.5],[1,0.5]];portConstraint=eastwest;fontSize=16;" vertex="1" parent="Qr5utOBiKfbGwNmgys-7-11">
          <mxGeometry y="180" width="692" height="39" as="geometry" />
        </mxCell>
        <mxCell id="Qr5utOBiKfbGwNmgys-7-38" style="shape=partialRectangle;html=1;whiteSpace=wrap;connectable=0;overflow=hidden;top=0;left=0;bottom=0;right=0;pointerEvents=1;fontSize=16;strokeWidth=0;fillColor=none;strokeColor=inherit;" vertex="1" parent="Qr5utOBiKfbGwNmgys-7-37">
          <mxGeometry width="331" height="39" as="geometry">
            <mxRectangle width="331" height="39" as="alternateBounds" />
          </mxGeometry>
        </mxCell>
        <mxCell id="Qr5utOBiKfbGwNmgys-7-39" style="shape=partialRectangle;html=1;whiteSpace=wrap;connectable=0;strokeColor=inherit;overflow=hidden;fillColor=none;top=0;left=0;bottom=0;right=0;pointerEvents=1;fontSize=16;" vertex="1" parent="Qr5utOBiKfbGwNmgys-7-37">
          <mxGeometry x="331" width="130" height="39" as="geometry">
            <mxRectangle width="130" height="39" as="alternateBounds" />
          </mxGeometry>
        </mxCell>
        <mxCell id="Qr5utOBiKfbGwNmgys-7-40" style="shape=partialRectangle;html=1;whiteSpace=wrap;connectable=0;strokeColor=inherit;overflow=hidden;fillColor=none;top=0;left=0;bottom=0;right=0;pointerEvents=1;fontSize=16;" vertex="1" parent="Qr5utOBiKfbGwNmgys-7-37">
          <mxGeometry x="461" width="231" height="39" as="geometry">
            <mxRectangle width="231" height="39" as="alternateBounds" />
          </mxGeometry>
        </mxCell>
        <mxCell id="Qr5utOBiKfbGwNmgys-7-42" style="shape=tableRow;horizontal=0;startSize=0;swimlaneHead=0;swimlaneBody=0;strokeColor=#666666;top=0;left=0;bottom=0;right=0;collapsible=0;dropTarget=0;fillColor=#f5f5f5;points=[[0,0.5],[1,0.5]];portConstraint=eastwest;fontSize=16;fontColor=#333333;" vertex="1" parent="Qr5utOBiKfbGwNmgys-7-11">
          <mxGeometry y="219" width="692" height="39" as="geometry" />
        </mxCell>
        <mxCell id="Qr5utOBiKfbGwNmgys-7-43" style="shape=partialRectangle;html=1;whiteSpace=wrap;connectable=0;overflow=hidden;top=0;left=0;bottom=0;right=0;pointerEvents=1;fontSize=16;strokeWidth=0;fillColor=none;strokeColor=inherit;" vertex="1" parent="Qr5utOBiKfbGwNmgys-7-42">
          <mxGeometry width="331" height="39" as="geometry">
            <mxRectangle width="331" height="39" as="alternateBounds" />
          </mxGeometry>
        </mxCell>
        <mxCell id="Qr5utOBiKfbGwNmgys-7-44" style="shape=partialRectangle;html=1;whiteSpace=wrap;connectable=0;strokeColor=inherit;overflow=hidden;fillColor=none;top=0;left=0;bottom=0;right=0;pointerEvents=1;fontSize=16;" vertex="1" parent="Qr5utOBiKfbGwNmgys-7-42">
          <mxGeometry x="331" width="130" height="39" as="geometry">
            <mxRectangle width="130" height="39" as="alternateBounds" />
          </mxGeometry>
        </mxCell>
        <mxCell id="Qr5utOBiKfbGwNmgys-7-45" style="shape=partialRectangle;html=1;whiteSpace=wrap;connectable=0;strokeColor=inherit;overflow=hidden;fillColor=none;top=0;left=0;bottom=0;right=0;pointerEvents=1;fontSize=16;" vertex="1" parent="Qr5utOBiKfbGwNmgys-7-42">
          <mxGeometry x="461" width="231" height="39" as="geometry">
            <mxRectangle width="231" height="39" as="alternateBounds" />
          </mxGeometry>
        </mxCell>
        <mxCell id="Qr5utOBiKfbGwNmgys-7-47" style="shape=tableRow;horizontal=0;startSize=0;swimlaneHead=0;swimlaneBody=0;strokeColor=inherit;top=0;left=0;bottom=0;right=0;collapsible=0;dropTarget=0;fillColor=none;points=[[0,0.5],[1,0.5]];portConstraint=eastwest;fontSize=16;" vertex="1" parent="Qr5utOBiKfbGwNmgys-7-11">
          <mxGeometry y="258" width="692" height="38" as="geometry" />
        </mxCell>
        <mxCell id="Qr5utOBiKfbGwNmgys-7-48" style="shape=partialRectangle;html=1;whiteSpace=wrap;connectable=0;overflow=hidden;top=0;left=0;bottom=0;right=0;pointerEvents=1;fontSize=16;strokeWidth=0;fillColor=none;strokeColor=inherit;" vertex="1" parent="Qr5utOBiKfbGwNmgys-7-47">
          <mxGeometry width="331" height="38" as="geometry">
            <mxRectangle width="331" height="38" as="alternateBounds" />
          </mxGeometry>
        </mxCell>
        <mxCell id="Qr5utOBiKfbGwNmgys-7-49" style="shape=partialRectangle;html=1;whiteSpace=wrap;connectable=0;strokeColor=inherit;overflow=hidden;fillColor=none;top=0;left=0;bottom=0;right=0;pointerEvents=1;fontSize=16;" vertex="1" parent="Qr5utOBiKfbGwNmgys-7-47">
          <mxGeometry x="331" width="130" height="38" as="geometry">
            <mxRectangle width="130" height="38" as="alternateBounds" />
          </mxGeometry>
        </mxCell>
        <mxCell id="Qr5utOBiKfbGwNmgys-7-50" style="shape=partialRectangle;html=1;whiteSpace=wrap;connectable=0;strokeColor=inherit;overflow=hidden;fillColor=none;top=0;left=0;bottom=0;right=0;pointerEvents=1;fontSize=16;" vertex="1" parent="Qr5utOBiKfbGwNmgys-7-47">
          <mxGeometry x="461" width="231" height="38" as="geometry">
            <mxRectangle width="231" height="38" as="alternateBounds" />
          </mxGeometry>
        </mxCell>
        <mxCell id="Qr5utOBiKfbGwNmgys-7-52" style="shape=tableRow;horizontal=0;startSize=0;swimlaneHead=0;swimlaneBody=0;strokeColor=inherit;top=0;left=0;bottom=0;right=0;collapsible=0;dropTarget=0;fillColor=none;points=[[0,0.5],[1,0.5]];portConstraint=eastwest;fontSize=16;" vertex="1" parent="Qr5utOBiKfbGwNmgys-7-11">
          <mxGeometry y="296" width="692" height="38" as="geometry" />
        </mxCell>
        <mxCell id="Qr5utOBiKfbGwNmgys-7-53" style="shape=partialRectangle;html=1;whiteSpace=wrap;connectable=0;overflow=hidden;top=0;left=0;bottom=0;right=0;pointerEvents=1;fontSize=16;strokeWidth=0;fillColor=#f5f5f5;strokeColor=#666666;fontColor=#333333;" vertex="1" parent="Qr5utOBiKfbGwNmgys-7-52">
          <mxGeometry width="331" height="38" as="geometry">
            <mxRectangle width="331" height="38" as="alternateBounds" />
          </mxGeometry>
        </mxCell>
        <mxCell id="Qr5utOBiKfbGwNmgys-7-54" style="shape=partialRectangle;html=1;whiteSpace=wrap;connectable=0;strokeColor=#666666;overflow=hidden;fillColor=#f5f5f5;top=0;left=0;bottom=0;right=0;pointerEvents=1;fontSize=16;fontColor=#333333;" vertex="1" parent="Qr5utOBiKfbGwNmgys-7-52">
          <mxGeometry x="331" width="130" height="38" as="geometry">
            <mxRectangle width="130" height="38" as="alternateBounds" />
          </mxGeometry>
        </mxCell>
        <mxCell id="Qr5utOBiKfbGwNmgys-7-55" style="shape=partialRectangle;html=1;whiteSpace=wrap;connectable=0;strokeColor=#666666;overflow=hidden;fillColor=#f5f5f5;top=0;left=0;bottom=0;right=0;pointerEvents=1;fontSize=16;fontColor=#333333;" vertex="1" parent="Qr5utOBiKfbGwNmgys-7-52">
          <mxGeometry x="461" width="231" height="38" as="geometry">
            <mxRectangle width="231" height="38" as="alternateBounds" />
          </mxGeometry>
        </mxCell>
        <mxCell id="Qr5utOBiKfbGwNmgys-7-57" style="shape=tableRow;horizontal=0;startSize=0;swimlaneHead=0;swimlaneBody=0;strokeColor=inherit;top=0;left=0;bottom=0;right=0;collapsible=0;dropTarget=0;fillColor=none;points=[[0,0.5],[1,0.5]];portConstraint=eastwest;fontSize=16;" vertex="1" parent="Qr5utOBiKfbGwNmgys-7-11">
          <mxGeometry y="334" width="692" height="39" as="geometry" />
        </mxCell>
        <mxCell id="Qr5utOBiKfbGwNmgys-7-58" style="shape=partialRectangle;html=1;whiteSpace=wrap;connectable=0;overflow=hidden;top=0;left=0;bottom=0;right=0;pointerEvents=1;fontSize=16;strokeWidth=0;fillColor=none;strokeColor=inherit;" vertex="1" parent="Qr5utOBiKfbGwNmgys-7-57">
          <mxGeometry width="331" height="39" as="geometry">
            <mxRectangle width="331" height="39" as="alternateBounds" />
          </mxGeometry>
        </mxCell>
        <mxCell id="Qr5utOBiKfbGwNmgys-7-59" style="shape=partialRectangle;html=1;whiteSpace=wrap;connectable=0;strokeColor=inherit;overflow=hidden;fillColor=none;top=0;left=0;bottom=0;right=0;pointerEvents=1;fontSize=16;" vertex="1" parent="Qr5utOBiKfbGwNmgys-7-57">
          <mxGeometry x="331" width="130" height="39" as="geometry">
            <mxRectangle width="130" height="39" as="alternateBounds" />
          </mxGeometry>
        </mxCell>
        <mxCell id="Qr5utOBiKfbGwNmgys-7-60" style="shape=partialRectangle;html=1;whiteSpace=wrap;connectable=0;strokeColor=inherit;overflow=hidden;fillColor=none;top=0;left=0;bottom=0;right=0;pointerEvents=1;fontSize=16;" vertex="1" parent="Qr5utOBiKfbGwNmgys-7-57">
          <mxGeometry x="461" width="231" height="39" as="geometry">
            <mxRectangle width="231" height="39" as="alternateBounds" />
          </mxGeometry>
        </mxCell>
        <mxCell id="Qr5utOBiKfbGwNmgys-7-62" style="shape=tableRow;horizontal=0;startSize=0;swimlaneHead=0;swimlaneBody=0;strokeColor=inherit;top=0;left=0;bottom=0;right=0;collapsible=0;dropTarget=0;fillColor=none;points=[[0,0.5],[1,0.5]];portConstraint=eastwest;fontSize=16;" vertex="1" parent="Qr5utOBiKfbGwNmgys-7-11">
          <mxGeometry y="373" width="692" height="37" as="geometry" />
        </mxCell>
        <mxCell id="Qr5utOBiKfbGwNmgys-7-63" style="shape=partialRectangle;html=1;whiteSpace=wrap;connectable=0;overflow=hidden;top=0;left=0;bottom=0;right=0;pointerEvents=1;fontSize=16;strokeWidth=0;fillColor=#f5f5f5;strokeColor=#666666;fontColor=#333333;" vertex="1" parent="Qr5utOBiKfbGwNmgys-7-62">
          <mxGeometry width="331" height="37" as="geometry">
            <mxRectangle width="331" height="37" as="alternateBounds" />
          </mxGeometry>
        </mxCell>
        <mxCell id="Qr5utOBiKfbGwNmgys-7-64" value="" style="shape=partialRectangle;html=1;whiteSpace=wrap;connectable=0;strokeColor=#666666;overflow=hidden;fillColor=#f5f5f5;top=0;left=0;bottom=0;right=0;pointerEvents=1;fontSize=16;fontColor=#333333;" vertex="1" parent="Qr5utOBiKfbGwNmgys-7-62">
          <mxGeometry x="331" width="130" height="37" as="geometry">
            <mxRectangle width="130" height="37" as="alternateBounds" />
          </mxGeometry>
        </mxCell>
        <mxCell id="Qr5utOBiKfbGwNmgys-7-65" style="shape=partialRectangle;html=1;whiteSpace=wrap;connectable=0;strokeColor=#666666;overflow=hidden;fillColor=#f5f5f5;top=0;left=0;bottom=0;right=0;pointerEvents=1;fontSize=16;fontColor=#333333;" vertex="1" parent="Qr5utOBiKfbGwNmgys-7-62">
          <mxGeometry x="461" width="231" height="37" as="geometry">
            <mxRectangle width="231" height="37" as="alternateBounds" />
          </mxGeometry>
        </mxCell>
        <mxCell id="Qr5utOBiKfbGwNmgys-7-67" value="FOOTER" style="rounded=0;whiteSpace=wrap;html=1;resizeWidth=0;" vertex="1" parent="1">
          <mxGeometry x="10" y="767" width="1150" height="60" as="geometry" />
        </mxCell>
        <mxCell id="Qr5utOBiKfbGwNmgys-7-68" value="" style="rounded=0;whiteSpace=wrap;html=1;fillColor=#f5f5f5;fontColor=#333333;strokeColor=#666666;" vertex="1" parent="1">
          <mxGeometry x="10" width="1150" height="90" as="geometry" />
        </mxCell>
        <mxCell id="Qr5utOBiKfbGwNmgys-7-69" value="Filtrer affichages" style="shape=partialRectangle;whiteSpace=wrap;html=1;bottom=0;top=0;fillColor=none;" vertex="1" parent="1">
          <mxGeometry x="250" y="20" width="130" height="50" as="geometry" />
        </mxCell>
        <mxCell id="Qr5utOBiKfbGwNmgys-7-70" value="Formulaires" style="shape=partialRectangle;whiteSpace=wrap;html=1;bottom=0;top=0;fillColor=none;" vertex="1" parent="1">
          <mxGeometry x="380" y="20" width="130" height="50" as="geometry" />
        </mxCell>
        <mxCell id="Qr5utOBiKfbGwNmgys-7-71" value="Modifications" style="shape=partialRectangle;whiteSpace=wrap;html=1;bottom=0;top=0;fillColor=none;" vertex="1" parent="1">
          <mxGeometry x="510" y="20" width="130" height="50" as="geometry" />
        </mxCell>
        <mxCell id="Qr5utOBiKfbGwNmgys-7-72" value="&lt;p style=&quot;line-height: 120%;&quot;&gt;Accueil&lt;/p&gt;" style="shape=partialRectangle;whiteSpace=wrap;html=1;bottom=0;top=0;fillColor=none;" vertex="1" parent="1">
          <mxGeometry x="115" y="20" width="135" height="50" as="geometry" />
        </mxCell>
        <mxCell id="Qr5utOBiKfbGwNmgys-7-73" value="" style="triangle;whiteSpace=wrap;html=1;rotation=90;" vertex="1" parent="1">
          <mxGeometry x="360" y="50" width="10" height="20" as="geometry" />
        </mxCell>
        <mxCell id="Qr5utOBiKfbGwNmgys-7-74" value="" style="triangle;whiteSpace=wrap;html=1;rotation=90;" vertex="1" parent="1">
          <mxGeometry x="490" y="50" width="10" height="20" as="geometry" />
        </mxCell>
      </root>
    </mxGraphModel>
  </diagram>
</mxfile>
